<svg width="286" height="286" viewBox="0 0 286 286" fill="none" xmlns="http://www.w3.org/2000/svg">
<path fill-rule="evenodd" clip-rule="evenodd" d="M30 0H65V8H30C17.8497 8 8 17.8497 8 30V64H0V30C0 13.4315 13.4315 0 30 0ZM0 220.93V256C0 272.569 13.4315 286 30 286H65V278H30C17.8497 278 8 268.15 8 256V220.93H0ZM278 220.93V256C278 268.15 268.15 278 256 278H221.93V286H256C272.569 286 286 272.569 286 256V220.93H278ZM286 64V30C286 13.4315 272.569 0 256 0H221.93V8H256C268.15 8 278 17.8497 278 30V64H286Z" fill="#636AF2"/>
</svg>
